<svg xmlns="http://www.w3.org/2000/svg" width="500px" height="500px" viewBox="0 0 500 500">
  <!-- 背景颜色 -->
  <rect width="100%" height="100%" fill="lightblue" />

  <!-- 云朵的基本形状 -->
  <path fill="white" d="M250,100c0-30,40-30,40,0v100h-40v-70c0-30,40-30,40,0v70h40v-100H250z" />

  <!-- 云朵的阴影 -->
  <path fill="gray" d="M250,100c0-30,40-30,40,0v100h-40v-70c0-30,40-30,40,0v70h40v-100H250z" opacity="0.5" />

  <!-- 翅膀 -->
  <path fill="white" d="M250,200l100,100h-200z" />
  <path fill="white" d="M250,200l-100,100h200z" />

  <!-- 翅膀的阴影 -->
  <path fill="gray" d="M250,200l100,100h-200z" opacity="0.5" />
  <path fill="gray" d="M250,200l-100,100h200z" opacity="0.5" />

  <!-- 想象力的光芒 -->
  <circle cx="250" cy="250" r="50" fill="yellow" />
  <circle cx="250" cy="250" r="40" fill="white" />
  <circle cx="250" cy="250" r="30" fill="yellow" />
  <circle cx="250" cy="250" r="20" fill="white" />
  <circle cx="250" cy="250" r="10" fill="yellow" />

  <!-- 光芒的焦点 -->
  <circle cx="250" cy="250" r="5" fill="white" />
</svg>
